<?xml version="1.0" encoding="UTF-8" standalone="no"?>
<!DOCTYPE svg PUBLIC "-//W3C//DTD SVG 1.1//EN"
 "http://www.w3.org/Graphics/SVG/1.1/DTD/svg11.dtd">
<!-- Generated by graphviz version 2.43.0 (0)
 -->
<!-- Title: MoFileLib.MoFileReaderSingleton Pages: 1 -->
<svg width="290pt" height="237pt"
 viewBox="0.00 0.00 290.00 237.00" xmlns="http://www.w3.org/2000/svg" xmlns:xlink="http://www.w3.org/1999/xlink">
<g id="graph0" class="graph" transform="scale(1 1) rotate(0) translate(4 233)">
<title>MoFileLib.MoFileReaderSingleton</title>
<!-- Node1 -->
<g id="node1" class="node">
<title>Node1</title>
<g id="a_node1"><a xlink:title="Convenience Class.">
<polygon fill="#bfbfbf" stroke="black" points="51,-0.5 51,-57.5 230,-57.5 230,-0.5 51,-0.5"/>
<text text-anchor="middle" x="140.5" y="-45.5" font-family="Helvetica,sans-Serif" font-size="10.00">MoFileLib.MoFileReaderSingleton</text>
<polyline fill="none" stroke="black" points="51,-38.5 230,-38.5 "/>
<text text-anchor="middle" x="140.5" y="-26.5" font-family="Helvetica,sans-Serif" font-size="10.00"> </text>
<polyline fill="none" stroke="black" points="51,-19.5 230,-19.5 "/>
<text text-anchor="middle" x="140.5" y="-7.5" font-family="Helvetica,sans-Serif" font-size="10.00"> </text>
</a>
</g>
</g>
<!-- Node2 -->
<g id="node2" class="node">
<title>Node2</title>
<g id="a_node2"><a xlink:href="classMoFileLib_1_1MoFileReader.html" target="_top" xlink:title="This class is a gettext&#45;replacement.">
<polygon fill="none" stroke="black" points="0,-105.5 0,-228.5 131,-228.5 131,-105.5 0,-105.5"/>
<text text-anchor="middle" x="65.5" y="-216.5" font-family="Helvetica,sans-Serif" font-size="10.00">MoFileReader</text>
<polyline fill="none" stroke="black" points="0,-209.5 131,-209.5 "/>
<text text-anchor="middle" x="65.5" y="-197.5" font-family="Helvetica,sans-Serif" font-size="10.00"> </text>
<polyline fill="none" stroke="black" points="0,-190.5 131,-190.5 "/>
<text text-anchor="start" x="8" y="-178.5" font-family="Helvetica,sans-Serif" font-size="10.00">+ ParseData()</text>
<text text-anchor="start" x="8" y="-167.5" font-family="Helvetica,sans-Serif" font-size="10.00">+ ReadFile()</text>
<text text-anchor="start" x="8" y="-156.5" font-family="Helvetica,sans-Serif" font-size="10.00">+ Lookup()</text>
<text text-anchor="start" x="8" y="-145.5" font-family="Helvetica,sans-Serif" font-size="10.00">+ LookupWithContext()</text>
<text text-anchor="start" x="8" y="-134.5" font-family="Helvetica,sans-Serif" font-size="10.00">+ ClearTable()</text>
<text text-anchor="start" x="8" y="-123.5" font-family="Helvetica,sans-Serif" font-size="10.00">+ GetNumStrings()</text>
<text text-anchor="start" x="8" y="-112.5" font-family="Helvetica,sans-Serif" font-size="10.00">~ GetErrorDescription()</text>
</a>
</g>
</g>
<!-- Node2&#45;&gt;Node1 -->
<g id="edge1" class="edge">
<title>Node2&#45;&gt;Node1</title>
<path fill="none" stroke="midnightblue" d="M103.99,-96.21C111.51,-82.57 118.98,-69.02 125.18,-57.78"/>
<polygon fill="none" stroke="midnightblue" points="100.82,-94.71 99.05,-105.16 106.95,-98.09 100.82,-94.71"/>
</g>
<!-- Node3 -->
<g id="node3" class="node">
<title>Node3</title>
<g id="a_node3"><a xlink:href="classMoFileLib_1_1MoFileReader.html" target="_top" xlink:title="This class is a gettext&#45;replacement.">
<polygon fill="none" stroke="black" points="149,-105.5 149,-228.5 282,-228.5 282,-105.5 149,-105.5"/>
<text text-anchor="middle" x="215.5" y="-216.5" font-family="Helvetica,sans-Serif" font-size="10.00">MoFileLib.MoFileReader</text>
<polyline fill="none" stroke="black" points="149,-209.5 282,-209.5 "/>
<text text-anchor="middle" x="215.5" y="-197.5" font-family="Helvetica,sans-Serif" font-size="10.00"> </text>
<polyline fill="none" stroke="black" points="149,-190.5 282,-190.5 "/>
<text text-anchor="start" x="157" y="-178.5" font-family="Helvetica,sans-Serif" font-size="10.00">+ ParseData()</text>
<text text-anchor="start" x="157" y="-167.5" font-family="Helvetica,sans-Serif" font-size="10.00">+ ReadFile()</text>
<text text-anchor="start" x="157" y="-156.5" font-family="Helvetica,sans-Serif" font-size="10.00">+ Lookup()</text>
<text text-anchor="start" x="157" y="-145.5" font-family="Helvetica,sans-Serif" font-size="10.00">+ LookupWithContext()</text>
<text text-anchor="start" x="157" y="-134.5" font-family="Helvetica,sans-Serif" font-size="10.00">+ ClearTable()</text>
<text text-anchor="start" x="157" y="-123.5" font-family="Helvetica,sans-Serif" font-size="10.00">+ GetNumStrings()</text>
<text text-anchor="start" x="157" y="-112.5" font-family="Helvetica,sans-Serif" font-size="10.00">~ GetErrorDescription()</text>
</a>
</g>
</g>
<!-- Node3&#45;&gt;Node1 -->
<g id="edge2" class="edge">
<title>Node3&#45;&gt;Node1</title>
<path fill="none" stroke="#404040" d="M181.95,-105.16C175.1,-92.75 168.08,-80.01 161.81,-68.64"/>
<polygon fill="none" stroke="#404040" points="161.61,-68.28 155.21,-64.96 155.82,-57.78 162.22,-61.1 161.61,-68.28"/>
<text text-anchor="middle" x="198" y="-79" font-family="Helvetica,sans-Serif" font-size="10.00"> +Instance</text>
</g>
</g>
</svg>
